<?xml version="1.0" encoding="UTF-8" standalone="no"?>
<!DOCTYPE svg PUBLIC "-//W3C//DTD SVG 1.1//EN" "http://www.w3.org/Graphics/SVG/1.1/DTD/svg11.dtd">
<svg width="100%" height="100%" viewBox="0 0 24 24" version="1.1" xmlns="http://www.w3.org/2000/svg" xmlns:xlink="http://www.w3.org/1999/xlink" xml:space="preserve" xmlns:serif="http://www.serif.com/" style="fill-rule:evenodd;clip-rule:evenodd;stroke-linejoin:round;stroke-miterlimit:2;">
    <path d="M11,9C11,10.66 9.66,12 8,12C6.34,12 5,10.66 5,9C5,7.34 6.34,6 8,6C9.66,6 11,7.34 11,9M14,20L2,20L2,18C2,15.79 4.69,14 8,14C11.31,14 14,15.79 14,18M22,12L22,14L13,14L13,12M22,8L22,10L13,10L13,8M22,4L22,6L13,6L13,4L22,4Z" style="fill:rgb(230,230,230);fill-rule:nonzero;"/>
</svg>
