<?xml version="1.0" encoding="UTF-8" standalone="no"?>
<!DOCTYPE svg PUBLIC "-//W3C//DTD SVG 1.1//EN" "http://www.w3.org/Graphics/SVG/1.1/DTD/svg11.dtd">
<svg width="100%" height="100%" viewBox="0 0 24 24" version="1.1" xmlns="http://www.w3.org/2000/svg" xmlns:xlink="http://www.w3.org/1999/xlink" xml:space="preserve" xmlns:serif="http://www.serif.com/" style="fill-rule:evenodd;clip-rule:evenodd;stroke-linecap:round;stroke-linejoin:round;">
    <path d="M16,16L22,16" style="fill:none;fill-rule:nonzero;stroke:rgb(230,230,230);stroke-width:2px;"/>
    <path d="M19,13L19,19" style="fill:none;fill-rule:nonzero;stroke:rgb(230,230,230);stroke-width:2px;"/>
    <path d="M21,10L21,8C20.999,7.287 20.617,6.626 20,6.27L13,2.27C12.382,1.913 11.618,1.913 11,2.27L4,6.27C3.383,6.626 3.001,7.287 3,8L3,16C3.001,16.713 3.383,17.374 4,17.73L11,21.73C11.618,22.087 12.382,22.087 13,21.73L15,20.59" style="fill:none;fill-rule:nonzero;stroke:rgb(230,230,230);stroke-width:2px;"/>
    <path d="M16.5,9.4L7.55,4.24" style="fill:none;fill-rule:nonzero;stroke:rgb(230,230,230);stroke-width:2px;"/>
    <path d="M3.29,7L12,12M12,12L20.71,7M12,12L12,22" style="fill:none;fill-rule:nonzero;stroke:rgb(230,230,230);stroke-width:2px;"/>
</svg>
