<?xml version="1.0" encoding="UTF-8" standalone="no"?>
<!DOCTYPE svg PUBLIC "-//W3C//DTD SVG 1.1//EN" "http://www.w3.org/Graphics/SVG/1.1/DTD/svg11.dtd">
<svg width="100%" height="100%" viewBox="0 0 24 24" version="1.1" xmlns="http://www.w3.org/2000/svg" xmlns:xlink="http://www.w3.org/1999/xlink" xml:space="preserve" xmlns:serif="http://www.serif.com/" style="fill-rule:evenodd;clip-rule:evenodd;stroke-linejoin:round;stroke-miterlimit:2;">
    <rect x="0" y="0" width="24" height="24" style="fill:none;fill-rule:nonzero;"/>
    <path d="M18.031,16.617L22.314,20.899L20.899,22.314L16.617,18.031C15.024,19.308 13.042,20.003 11,20C6.032,20 2,15.968 2,11C2,6.032 6.032,2 11,2C15.968,2 20,6.032 20,11C20.003,13.042 19.308,15.024 18.031,16.617ZM16.025,15.875C17.294,14.57 18.003,12.82 18,11C18,7.132 14.867,4 11,4C7.132,4 4,7.132 4,11C4,14.867 7.132,18 11,18C12.82,18.003 14.57,17.294 15.875,16.025L16.025,15.875Z" style="fill:#e6e6e6;fill-rule:nonzero;"/>
</svg>
